<?xml version="1.0" encoding="UTF-8" standalone="no"?>
<!DOCTYPE svg PUBLIC "-//W3C//DTD SVG 1.1//EN" "http://www.w3.org/Graphics/SVG/1.1/DTD/svg11.dtd">
<svg xmlns="http://www.w3.org/2000/svg" version="1.1" viewBox="0 0 143 248">


<path fill="rgb(69,96,110)" fill-opacity="1.000" d="M 78.54 22.00 Q 79.13 22.82 78.54 23.16 A 0.59 0.46 -25.9 0 0 78.23 23.79 Q 78.85 25.35 80.29 26.09 Q 82.31 27.11 82.80 27.53 Q 87.14 31.23 91.84 34.47 A 1.13 1.04 -77.6 0 1 92.29 35.24 Q 92.69 38.58 96.25 38.96 Q 85.49 38.64 74.75 39.25 Q 67.88 39.63 61.00 39.46 Q 58.67 39.10 56.31 38.99 Q 54.33 38.90 54.45 37.41 Q 54.51 36.60 55.43 35.75 Q 60.74 30.82 65.77 25.62 Q 66.17 25.21 67.02 24.76 Q 67.71 24.39 68.25 23.79 Q 72.93 20.12 78.54 22.00 Z"/>
<path fill="rgb(59,82,97)" fill-opacity="1.000" d="M 78.54 22.00 Q 88.91 27.22 99.36 32.26 Q 99.44 32.30 104.42 34.24 Q 107.35 35.38 109.79 37.50 L 110.34 38.87 A 0.46 0.42 70.5 0 1 110.09 39.47 Q 107.96 40.10 105.88 39.68 Q 102.64 39.04 101.88 39.02 Q 99.07 38.98 96.25 38.96 Q 92.69 38.58 92.29 35.24 A 1.13 1.04 -77.6 0 0 91.84 34.47 Q 87.14 31.23 82.80 27.53 Q 82.31 27.11 80.29 26.09 Q 78.85 25.35 78.23 23.79 A 0.59 0.46 -25.9 0 1 78.54 23.16 Q 79.13 22.82 78.54 22.00 Z"/>


<path fill="rgb(86,108,118)" fill-opacity="1.000" d="M 68.25 23.79 Q 67.71 24.39 67.02 24.76 Q 66.17 25.21 65.77 25.62 Q 60.74 30.82 55.43 35.75 Q 54.51 36.60 54.45 37.41 Q 54.33 38.90 56.31 38.99 Q 58.67 39.10 61.00 39.46 Q 59.32 39.34 57.06 39.81 Q 55.41 40.16 53.62 39.76 Q 51.44 39.27 50.31 39.31 Q 44.62 39.53 38.94 39.97 Q 38.49 40.00 38.10 39.84 Q 37.69 39.68 37.29 39.50 Q 37.21 38.57 38.07 38.08 Q 39.89 37.06 41.77 36.18 Q 41.86 36.14 44.94 34.40 Q 46.67 33.43 48.69 33.22 Q 49.21 33.17 49.61 32.91 Q 58.35 27.15 68.25 23.79 Z"/>
<path fill="rgb(126,141,144)" fill-opacity="1.000" d="M 109.79 37.50 Q 114.37 38.37 111.96 42.75 Q 109.61 42.95 108.69 42.56 Q 107.19 41.93 106.10 42.89 A 1.43 1.11 -60.3 0 1 105.25 43.24 L 101.75 43.29 Q 96.16 43.23 82.00 43.50 Q 77.67 43.58 74.10 44.04 Q 70.94 44.46 68.38 44.20 Q 65.51 43.91 62.64 43.67 Q 62.53 43.66 58.39 43.11 Q 55.19 42.68 51.96 43.25 Q 45.48 43.89 39.00 43.30 A 0.98 0.79 17.2 0 0 38.17 43.63 Q 37.59 44.49 38.03 45.56 A 1.61 0.86 54.6 0 1 38.15 46.48 L 37.54 48.75 L 36.31 43.15 A 1.70 0.52 -65.2 0 1 36.44 42.19 L 37.29 39.50 Q 37.69 39.68 38.10 39.84 Q 38.49 40.00 38.94 39.97 Q 44.62 39.53 50.31 39.31 Q 51.44 39.27 53.62 39.76 Q 55.41 40.16 57.06 39.81 Q 59.32 39.34 61.00 39.46 Q 67.88 39.63 74.75 39.25 Q 85.49 38.64 96.25 38.96 Q 99.07 38.98 101.88 39.02 Q 102.64 39.04 105.88 39.68 Q 107.96 40.10 110.09 39.47 A 0.46 0.42 70.5 0 0 110.34 38.87 L 109.79 37.50 Z"/>
<path fill="rgb(59,82,97)" fill-opacity="1.000" d="M 111.96 42.75 Q 111.77 46.50 111.52 50.25 Q 111.25 54.30 111.24 57.77 Q 111.20 79.26 111.50 100.72 Q 111.53 102.92 113.73 103.00 Q 127.78 103.49 141.81 103.56 Q 143.15 103.57 143.00 105.56 Q 143.00 106.31 143.00 107.06 Q 142.83 107.26 142.64 107.44 A 1.54 1.11 14.8 0 1 141.75 107.78 Q 127.77 108.71 113.75 108.50 A 2.50 0.94 -70.0 0 0 112.25 110.25 Q 111.55 111.91 109.69 112.19 Q 108.40 112.38 104.56 114.31 Q 102.26 115.47 102.79 117.75 L 102.46 122.25 Q 101.72 118.76 99.81 116.94 Q 98.00 115.21 96.96 117.50 Q 96.35 117.08 95.56 117.56 Q 91.70 119.95 86.54 122.00 Q 90.29 120.50 87.30 117.68 Q 85.54 116.02 84.64 118.27 Q 83.97 119.95 82.04 120.75 Q 78.60 119.10 74.97 120.33 A 1.73 1.56 40.2 0 1 74.01 120.36 Q 71.15 119.61 68.71 121.25 Q 64.49 117.78 59.05 117.80 A 0.95 0.68 -70.6 0 0 58.38 118.27 Q 57.97 118.98 57.00 118.54 Q 53.58 113.98 52.39 119.17 Q 50.47 127.49 49.26 135.94 Q 49.20 136.35 48.86 136.81 Q 48.03 137.93 49.00 139.04 Q 46.80 140.99 47.18 138.24 Q 47.52 135.84 47.55 133.41 Q 47.58 130.91 48.14 128.68 Q 49.69 122.54 49.81 116.18 A 0.44 0.42 86.1 0 0 49.32 115.74 Q 47.50 116.03 47.25 117.75 Q 46.82 120.74 46.04 122.00 L 46.00 116.49 A 1.43 1.22 -69.9 0 0 45.68 115.62 Q 44.16 113.94 42.04 113.23 Q 42.02 113.22 40.43 113.02 Q 39.20 112.86 38.71 111.50 Q 38.12 110.53 39.25 110.50 Q 61.21 109.90 90.02 110.22 Q 91.50 110.24 94.97 110.50 Q 98.69 110.79 99.94 110.19 Q 102.45 108.97 100.14 108.39 Q 99.64 108.26 98.84 108.33 Q 93.33 108.87 93.42 103.00 Q 93.43 101.79 92.25 101.46 Q 92.24 93.94 92.41 86.42 Q 92.44 84.70 93.17 74.74 Q 93.60 68.88 93.28 63.00 Q 92.82 54.34 93.19 45.67 Q 93.27 43.84 95.07 43.73 L 101.75 43.29 L 105.25 43.24 A 1.43 1.11 -60.3 0 0 106.10 42.89 Q 107.19 41.93 108.69 42.56 Q 109.61 42.95 111.96 42.75 Z"/>
<path fill="rgb(69,96,110)" fill-opacity="1.000" d="M 101.75 43.29 L 95.07 43.73 Q 93.27 43.84 93.19 45.67 Q 92.82 54.34 93.28 63.00 Q 93.60 68.88 93.17 74.74 Q 92.44 84.70 92.41 86.42 Q 92.24 93.94 92.25 101.46 Q 87.48 102.36 82.96 100.68 A 1.66 1.54 47.1 0 0 82.02 100.61 Q 79.60 101.15 77.17 101.67 Q 74.52 102.25 71.77 102.25 Q 63.89 102.25 56.00 102.25 Q 53.11 102.25 51.75 101.71 Q 51.44 99.51 50.87 97.37 Q 50.24 94.97 50.40 93.04 Q 50.59 90.76 50.90 88.50 Q 51.24 86.06 51.26 83.97 Q 51.31 77.19 51.64 70.41 Q 51.96 63.93 51.64 58.09 Q 51.30 51.92 51.05 45.75 Q 51.00 44.39 51.96 43.25 Q 55.19 42.68 58.39 43.11 Q 62.53 43.66 62.64 43.67 Q 65.51 43.91 68.38 44.20 Q 70.94 44.46 74.10 44.04 Q 77.67 43.58 82.00 43.50 Q 96.16 43.23 101.75 43.29 Z"/>
<path fill="rgb(86,108,118)" fill-opacity="1.000" d="M 51.96 43.25 Q 51.00 44.39 51.05 45.75 Q 51.30 51.92 51.64 58.09 Q 51.96 63.93 51.64 70.41 Q 51.31 77.19 51.26 83.97 Q 51.24 86.06 50.90 88.50 Q 50.59 90.76 50.40 93.04 Q 50.24 94.97 50.87 97.37 Q 51.44 99.51 51.75 101.71 Q 46.37 101.50 41.00 101.25 Q 39.28 101.17 37.79 99.25 Q 38.47 74.00 37.54 48.75 L 38.15 46.48 A 1.61 0.86 54.6 0 0 38.03 45.56 Q 37.59 44.49 38.17 43.63 A 0.98 0.79 17.2 0 1 39.00 43.30 Q 45.48 43.89 51.96 43.25 Z"/>
<path fill="rgb(106,120,123)" fill-opacity="1.000" d="M 37.79 99.25 Q 39.28 101.17 41.00 101.25 Q 46.37 101.50 51.75 101.71 Q 53.11 102.25 56.00 102.25 Q 63.89 102.25 71.77 102.25 Q 74.52 102.25 77.17 101.67 Q 79.60 101.15 82.02 100.61 A 1.66 1.54 47.1 0 1 82.96 100.68 Q 87.48 102.36 92.25 101.46 Q 93.43 101.79 93.42 103.00 Q 93.33 108.87 98.84 108.33 Q 99.64 108.26 100.14 108.39 Q 102.45 108.97 99.94 110.19 Q 98.69 110.79 94.97 110.50 Q 91.50 110.24 90.02 110.22 Q 61.21 109.90 39.25 110.50 Q 38.12 110.53 38.71 111.50 Q 37.74 111.63 36.75 111.77 Q 34.79 112.03 36.99 110.35 A 1.37 1.36 65.6 0 0 37.50 108.98 Q 36.42 104.09 37.79 99.25 Z"/>

<path fill="rgb(63,42,28)" fill-opacity="1.000" d="M 49.00 139.04 L 50.75 137.71 Q 58.87 134.04 66.25 129.04 L 69.95 126.50 A 0.34 0.32 42.3 0 0 69.91 125.94 L 57.00 118.54 Q 57.97 118.98 58.38 118.27 A 0.95 0.68 -70.6 0 1 59.05 117.80 Q 64.49 117.78 68.71 121.25 Q 70.38 122.23 72.18 122.90 Q 74.00 123.59 75.88 123.16 Q 79.12 122.44 82.04 120.75 Q 83.97 119.95 84.64 118.27 Q 85.54 116.02 87.30 117.68 Q 90.29 120.50 86.54 122.00 L 86.50 122.21 L 78.33 126.49 A 0.13 0.12 49.0 0 0 78.32 126.70 Q 81.91 129.20 86.00 130.75 Q 86.92 131.10 87.29 130.75 L 99.74 138.54 Q 100.97 139.31 101.02 137.84 Q 101.09 135.74 100.53 133.38 Q 99.66 129.69 99.64 129.57 Q 98.46 123.50 96.96 117.50 Q 98.00 115.21 99.81 116.94 Q 101.72 118.76 102.46 122.25 Q 104.45 131.71 105.48 141.32 Q 105.73 143.64 106.62 146.56 Q 107.41 149.14 107.86 151.81 Q 108.49 155.53 109.13 157.58 Q 110.03 160.42 110.96 163.25 Q 113.91 181.45 116.31 192.19 Q 118.76 203.10 119.78 212.20 Q 120.03 214.41 120.98 217.53 Q 121.85 220.42 121.96 222.98 A 2.35 2.35 -12.9 0 1 120.54 225.24 Q 117.74 226.47 117.47 224.56 Q 117.34 223.64 117.32 223.58 Q 116.66 220.82 116.05 218.06 A 0.69 0.66 85.8 0 0 115.45 217.52 Q 109.79 217.00 108.00 217.00 Q 70.53 216.90 33.06 216.81 A 0.62 0.51 -84.1 0 0 32.54 217.32 L 31.18 224.70 Q 30.77 226.98 28.77 225.47 Q 27.32 224.37 27.30 222.53 Q 27.30 222.38 27.65 219.46 Q 27.98 216.75 28.69 214.11 Q 29.52 211.05 29.81 208.80 Q 30.65 202.25 32.50 194.50 Q 33.08 192.05 33.47 188.69 Q 33.82 185.61 34.51 182.90 Q 35.95 177.25 36.91 171.51 Q 38.57 161.60 38.87 160.05 Q 40.39 152.32 41.89 144.59 Q 41.91 144.51 42.99 141.05 Q 43.42 139.67 43.36 138.21 Q 43.27 136.29 43.42 135.42 Q 44.58 128.68 46.04 122.00 Q 46.82 120.74 47.25 117.75 Q 47.50 116.03 49.32 115.74 A 0.44 0.42 86.1 0 1 49.81 116.18 Q 49.69 122.54 48.14 128.68 Q 47.58 130.91 47.55 133.41 Q 47.52 135.84 47.18 138.24 Q 46.80 140.99 49.00 139.04 Z M 96.13 140.33 Q 94.93 139.97 92.56 138.69 Q 85.16 134.66 77.91 130.36 Q 74.62 128.41 71.19 130.44 Q 66.04 133.47 51.94 141.02 Q 51.50 141.25 51.99 141.28 Q 73.49 142.58 94.99 141.28 Q 95.41 141.26 96.01 141.28 Q 97.89 141.37 96.94 140.68 Q 96.69 140.50 96.13 140.33 Z M 85.56 145.17 Q 71.16 145.37 56.73 145.00 Q 55.63 144.97 56.54 145.59 Q 64.97 151.39 74.78 155.07 A 1.19 1.17 42.6 0 0 75.70 155.04 Q 84.78 150.91 93.33 145.75 Q 93.75 145.50 93.26 145.45 Q 89.42 145.11 85.56 145.17 Z M 41.96 172.25 Q 41.95 173.24 42.94 172.69 Q 50.56 168.41 66.56 160.31 Q 68.31 159.43 69.04 158.50 Q 71.95 157.95 70.12 156.09 A 1.14 0.99 61.5 0 0 69.24 155.76 L 67.04 156.00 Q 59.65 152.05 52.22 148.16 Q 52.13 148.12 50.49 147.08 Q 48.92 146.10 47.00 146.04 Q 45.93 146.11 45.77 147.25 Q 44.57 155.53 42.73 163.69 Q 42.71 163.76 42.02 166.15 Q 41.15 169.15 41.96 172.25 Z M 94.75 149.46 Q 91.51 152.50 87.29 153.87 Q 84.62 154.73 82.12 156.45 Q 79.75 158.07 82.31 159.37 Q 89.48 163.04 96.48 167.28 Q 101.76 170.48 106.00 172.16 Q 108.56 173.17 107.63 170.57 Q 105.20 163.79 105.04 157.50 L 103.23 147.40 Q 102.83 145.18 100.96 146.17 L 94.75 149.46 Z M 63.75 167.04 Q 62.90 166.65 62.10 167.12 Q 59.19 168.84 56.18 170.33 Q 56.15 170.34 53.62 171.35 Q 51.68 172.12 50.25 173.71 Q 48.21 174.87 47.50 175.00 Q 46.72 175.15 46.78 175.57 A 0.80 0.50 1.2 0 0 47.50 176.04 Q 60.30 176.96 74.50 176.25 Q 76.78 176.14 79.67 176.30 Q 82.31 176.46 84.82 176.32 Q 91.67 175.96 98.51 176.66 Q 99.70 176.79 101.35 176.08 A 0.32 0.32 -35.6 0 0 101.44 175.54 Q 99.04 173.37 96.45 172.10 Q 87.99 167.96 79.76 163.39 Q 76.66 161.67 76.34 161.59 Q 74.51 161.12 72.25 162.25 Q 67.88 164.43 63.75 167.04 Z M 58.25 183.71 L 72.60 190.67 A 2.43 1.94 47.1 0 0 74.08 190.89 Q 77.78 190.11 80.31 188.31 Q 83.23 186.25 96.99 180.14 Q 97.45 179.93 96.93 179.92 L 57.75 179.46 L 50.94 179.29 Q 50.25 179.28 50.80 179.73 Q 54.32 182.70 58.25 183.71 Z M 80.04 193.99 L 114.21 210.98 Q 114.57 211.16 114.50 210.77 Q 112.34 197.81 110.04 184.90 Q 109.62 182.57 108.52 180.36 A 0.52 0.52 63.9 0 0 107.83 180.12 L 80.05 193.37 Q 79.41 193.67 80.04 193.99 Z M 38.46 189.75 Q 36.85 195.41 35.69 201.19 Q 35.66 201.29 35.06 203.63 Q 34.40 206.17 35.00 208.79 Q 34.11 209.46 34.44 210.11 A 0.60 0.49 -26.6 0 0 35.20 210.28 Q 43.37 206.22 47.56 203.81 Q 51.61 201.49 55.42 199.95 Q 60.61 197.87 61.94 197.21 Q 65.10 195.63 68.20 193.93 Q 69.03 193.47 68.18 193.06 Q 57.36 187.77 46.59 182.39 Q 43.68 180.94 40.87 180.33 A 0.83 0.82 -79.3 0 0 39.89 181.01 L 38.46 189.75 Z M 107.96 213.27 Q 98.66 208.18 89.19 203.81 Q 79.13 199.17 74.93 196.75 A 0.84 0.84 -46.2 0 0 74.08 196.77 Q 71.40 198.46 65.31 201.06 Q 53.66 206.05 42.42 211.94 Q 39.56 213.44 42.79 213.43 Q 72.47 213.33 103.59 213.74 Q 103.66 213.74 105.38 213.55 Q 106.35 213.44 107.83 213.66 Q 108.96 213.82 107.96 213.27 Z"/>
























</svg>